<?xml version="1.0" encoding="utf-8"?>
<!-- Generator: Adobe Illustrator 23.0.1, SVG Export Plug-In . SVG Version: 6.00 Build 0)  -->
<svg version="1.1" id="Layer_1" xmlns="http://www.w3.org/2000/svg" xmlns:xlink="http://www.w3.org/1999/xlink" x="0px" y="0px"
	 viewBox="0 0 600 350" style="enable-background:new 0 0 600 350;" xml:space="preserve">
<style type="text/css">
	.st0{fill:#FFFFFF;}
	.st1{fill:none;stroke:#E5E5E5;stroke-linejoin:bevel;stroke-miterlimit:10;}
	.st2{clip-path:url(#SVGID_6_);}
	.st3{fill:none;}
	.st4{fill:#3182BD;stroke:#FFFFFF;stroke-linejoin:bevel;stroke-miterlimit:10;}
	.st5{fill:#6BAED6;stroke:#FFFFFF;stroke-linejoin:bevel;stroke-miterlimit:10;}
	.st6{fill:#9ECAE1;stroke:#FFFFFF;stroke-linejoin:bevel;stroke-miterlimit:10;}
	.st7{fill:#C6DBEF;stroke:#FFFFFF;stroke-linejoin:bevel;stroke-miterlimit:10;}
	.st8{clip-path:url(#SVGID_8_);}
	.st9{fill:#FFFFFF;fill-opacity:0.95;stroke:#E5E5E5;stroke-linejoin:bevel;stroke-miterlimit:10;stroke-opacity:0.5;}
	.st10{fill:#444444;}
	.st11{font-family:'Helvetica';}
	.st12{font-size:10px;}
	.st13{fill:#3182BD;}
	.st14{fill:none;stroke:#FFFFFF;stroke-linejoin:bevel;stroke-miterlimit:10;}
	.st15{fill:#6BAED6;}
	.st16{fill:#9ECAE1;}
	.st17{fill:#C6DBEF;}
	.st18{clip-path:url(#SVGID_10_);}
	.st19{font-size:12px;}
	.st20{font-family:'Helvetica-Bold';}
</style>
<g>
	<g transform="scale(1,1) translate(0.5,0.5)">
		<rect y="0" class="st0" width="600" height="350"/>
		<rect y="0" class="st0" width="600" height="350"/>
		<rect x="5" y="31" class="st0" width="590" height="314"/>
		<rect x="5" y="31" class="st0" width="590" height="314"/>
		<g>
			<rect x="5" y="31" class="st1" width="590" height="314"/>
		</g>
		<g>
			<defs>
				<rect id="SVGID_1_" x="5" y="31" width="590" height="314"/>
			</defs>
			<clipPath id="SVGID_2_">
				<use xlink:href="#SVGID_1_"  style="overflow:visible;"/>
			</clipPath>
		</g>
		<g>
			<defs>
				<rect id="SVGID_3_" x="5" y="31" width="590" height="314"/>
			</defs>
			<clipPath id="SVGID_4_">
				<use xlink:href="#SVGID_3_"  style="overflow:visible;"/>
			</clipPath>
		</g>
		<g>
			<defs>
				<rect id="SVGID_5_" x="5" y="31" width="590" height="314"/>
			</defs>
			<clipPath id="SVGID_6_">
				<use xlink:href="#SVGID_5_"  style="overflow:visible;"/>
			</clipPath>
			<g class="st2">
				<g>
					<g>
						<path class="st3" d="M5,31"/>
						<path class="st4" d="M418,188c0-31-12.2-60.7-33.9-82.7L300,188H418z"/>
						<path class="st5" d="M384.1,105.3c-45.7-46.5-120.4-47.1-166.9-1.4s-47.1,120.4-1.4,166.9s120.4,47.1,166.9,1.4
							c0.9-0.9,1.9-1.9,2.8-2.8L300,188L384.1,105.3z"/>
						<path class="st6" d="M385.5,269.3c16.6-17.5,27.5-39.6,31.1-63.4L300,188L385.5,269.3z"/>
						<path class="st7" d="M416.6,205.9c0.9-5.9,1.4-11.9,1.4-17.9H300L416.6,205.9z"/>
					</g>
				</g>
			</g>
		</g>
		<g>
			<defs>
				<rect id="SVGID_7_" x="5" y="31" width="590" height="314"/>
			</defs>
			<clipPath id="SVGID_8_">
				<use xlink:href="#SVGID_7_"  style="overflow:visible;"/>
			</clipPath>
			<g class="st8">
				<g>
					<g>
						<path class="st9" d="M480.9,41H585v109H480.9V41z"/>
						<text transform="matrix(1 0 0 1 515.8594 61)" class="st10 st11 st12">Bipolar</text>
						<rect x="492.9" y="53" class="st13" width="16" height="16"/>
						<path class="st14" d="M492.9,53h16v16h-16V53z"/>
						<text transform="matrix(1 0 0 1 515.8594 84)" class="st10 st11 st12">Rod</text>
						<rect x="492.9" y="76" class="st15" width="16" height="16"/>
						<path class="st14" d="M492.9,76h16v16h-16V76z"/>
						<text transform="matrix(1 0 0 1 515.8594 107)" class="st10 st11 st12">Amacrine</text>
						<rect x="492.9" y="99" class="st16" width="16" height="16"/>
						<path class="st14" d="M492.9,99h16v16h-16V99z"/>
						<text transform="matrix(1 0 0 1 515.8594 130)" class="st10 st11 st12">Muller glia</text>
						<rect x="492.9" y="122" class="st17" width="16" height="16"/>
						<path class="st14" d="M492.9,122h16v16h-16V122z"/>
					</g>
				</g>
			</g>
		</g>
		<g>
			<defs>
				<rect id="SVGID_9_" x="5" y="31" width="590" height="314"/>
			</defs>
			<clipPath id="SVGID_10_">
				<use xlink:href="#SVGID_9_"  style="overflow:visible;"/>
			</clipPath>
			<g class="st18">
				<g>
					<g>
						<path class="st3" d="M5,31"/>
						<g transform="translate(300,188) rotate(0,0,0)">
							<path class="st3" d="M5,31"/>
							<text transform="matrix(1 0 0 1 120.7944 -3.4233)" class="st10 st11 st19">12.37</text>
						</g>
					</g>
					<g>
						<path class="st10" d="M5,31"/>
						<g transform="translate(300,188) rotate(-44.52754724527547,0,0)">
							<path class="st10" d="M5,31"/>
							<text transform="matrix(1 0 0 1 121.7202 -1.0037)" class="st10 st11 st19">75.54</text>
						</g>
					</g>
					<g>
						<path class="st10" d="M5,31"/>
						<g transform="translate(300,188) rotate(-316.4443555644435,0,0)">
							<path class="st10" d="M5,31"/>
							<text transform="matrix(1 0 0 1 123.5622 -2.765)" class="st10 st11 st19">9.68</text>
						</g>
					</g>
					<g>
						<path class="st10" d="M5,31"/>
						<g transform="translate(300,188) rotate(-351.28887111288867,0,0)">
							<path class="st10" d="M5,31"/>
							<text transform="matrix(1 0 0 1 121.1006 -0.7439)" class="st10 st11 st19">2.42</text>
						</g>
					</g>
				</g>
			</g>
		</g>
		<g>
			<g>
				<path class="st10" d="M0,0"/>
				<g transform="translate(5,26)">
					<path class="st10" d="M0,0"/>
					<text transform="matrix(1 0 0 1 0 -1.464844e-05)" class="st20 st19">Triplet cell type proportions</text>
				</g>
			</g>
		</g>
	</g>
</g>
</svg>
