<svg version="1.1" xmlns="http://www.w3.org/2000/svg" xmlns:xlink="http://www.w3.org/1999/xlink" width="600" height="350" style="width: 600px; height: 350px;"><defs><clipPath id="lbOwZHadATsq"><path fill="none" stroke="none" d=" M 5 31 L 595 31 L 595 345 L 5 345 L 5 31 Z"/></clipPath><clipPath id="xCeIiCTbQoZd"><path fill="none" stroke="none" d=" M 5 31 L 595 31 L 595 345 L 5 345 L 5 31 Z"/></clipPath><clipPath id="dSDeBZqPoCGH"><path fill="none" stroke="none" d=" M 5 31 L 595 31 L 595 345 L 5 345 L 5 31 Z"/></clipPath><clipPath id="qgxTKUKeHpms"><path fill="none" stroke="none" d=" M 5 31 L 595 31 L 595 345 L 5 345 L 5 31 Z"/></clipPath></defs><g><g transform="scale(1,1) translate(0.5,0.5)"><rect fill="#FFFFFF" stroke="none" x="0" y="0" width="600" height="350"/><rect fill="#ffffff" stroke="none" x="0" y="0" width="600" height="350"/><rect fill="#FFFFFF" stroke="none" x="5" y="31" width="590" height="314"/><rect fill="#ffffff" stroke="none" x="5" y="31" width="590" height="314"/><g><rect fill="none" stroke="#e5e5e5" x="5" y="31" width="590" height="314" stroke-linejoin="bevel" stroke-miterlimit="10"/></g><g clip-path="url(#lbOwZHadATsq)"><g><g/></g></g><g clip-path="url(#xCeIiCTbQoZd)"><g><g/></g></g><g clip-path="url(#dSDeBZqPoCGH)"><g><g><path fill="none" stroke="none"/><path fill="#3182bd" stroke="white" paint-order="fill stroke markers" d=" M 418 188 A 118 118 0 0 0 337.7447990603319 76.19959685271628 L 300 188 Z" stroke-linejoin="bevel" stroke-miterlimit="10"/><path fill="#6baed6" stroke="white" paint-order="fill stroke markers" d=" M 337.7447990603319 76.19959685271628 A 118 118 0 0 0 187.6715550611054 151.85694454518648 L 300 188 Z" stroke-linejoin="bevel" stroke-miterlimit="10"/><path fill="#9ecae1" stroke="white" paint-order="fill stroke markers" d=" M 187.6715550611054 151.85694454518648 A 118 118 0 0 0 403.0117564817454 245.555000013427 L 300 188 Z" stroke-linejoin="bevel" stroke-miterlimit="10"/><path fill="#c6dbef" stroke="white" paint-order="fill stroke markers" d=" M 403.0117564817454 245.555000013427 A 118 118 0 0 0 417.2462852311301 201.3157275242655 L 300 188 Z" stroke-linejoin="bevel" stroke-miterlimit="10"/><path fill="#e6550d" stroke="white" paint-order="fill stroke markers" d=" M 417.2462852311301 201.3157275242655 A 118 118 0 0 0 418 188 L 300 188 Z" stroke-linejoin="bevel" stroke-miterlimit="10"/></g></g></g><g clip-path="url(#qgxTKUKeHpms)"><g><g/><g><path fill="#ffffff" stroke="#e5e5e5" paint-order="fill stroke markers" d=" M 458.4375 41 L 585 41 L 585 173 L 458.4375 173 L 458.4375 41 Z" fill-opacity="0.95" stroke-linejoin="bevel" stroke-miterlimit="10" stroke-opacity="0.5"/><text fill="#444444" stroke="none" font-family="helvetica" font-size="10pt" font-style="normal" font-weight="normal" text-decoration="normal" x="493.4375" y="61" text-anchor="start" dominant-baseline="central">Ganglion</text><rect fill="#3182bd" stroke="none" x="470.4375" y="53" width="16" height="16"/><path fill="none" stroke="white" paint-order="fill stroke markers" d=" M 470.4375 53 L 486.4375 53 L 486.4375 69 L 470.4375 69 L 470.4375 53 Z" stroke-linejoin="bevel" stroke-miterlimit="10"/><text fill="#444444" stroke="none" font-family="helvetica" font-size="10pt" font-style="normal" font-weight="normal" text-decoration="normal" x="493.4375" y="84" text-anchor="start" dominant-baseline="central">Amacrine</text><rect fill="#6baed6" stroke="none" x="470.4375" y="76" width="16" height="16"/><path fill="none" stroke="white" paint-order="fill stroke markers" d=" M 470.4375 76 L 486.4375 76 L 486.4375 92 L 470.4375 92 L 470.4375 76 Z" stroke-linejoin="bevel" stroke-miterlimit="10"/><text fill="#444444" stroke="none" font-family="helvetica" font-size="10pt" font-style="normal" font-weight="normal" text-decoration="normal" x="493.4375" y="107" text-anchor="start" dominant-baseline="central">Photoreceptor</text><rect fill="#9ecae1" stroke="none" x="470.4375" y="99" width="16" height="16"/><path fill="none" stroke="white" paint-order="fill stroke markers" d=" M 470.4375 99 L 486.4375 99 L 486.4375 115 L 470.4375 115 L 470.4375 99 Z" stroke-linejoin="bevel" stroke-miterlimit="10"/><text fill="#444444" stroke="none" font-family="helvetica" font-size="10pt" font-style="normal" font-weight="normal" text-decoration="normal" x="493.4375" y="130" text-anchor="start" dominant-baseline="central">Bipolar</text><rect fill="#c6dbef" stroke="none" x="470.4375" y="122" width="16" height="16"/><path fill="none" stroke="white" paint-order="fill stroke markers" d=" M 470.4375 122 L 486.4375 122 L 486.4375 138 L 470.4375 138 L 470.4375 122 Z" stroke-linejoin="bevel" stroke-miterlimit="10"/><text fill="#444444" stroke="none" font-family="helvetica" font-size="10pt" font-style="normal" font-weight="normal" text-decoration="normal" x="493.4375" y="153" text-anchor="start" dominant-baseline="central">Horizontal</text><rect fill="#e6550d" stroke="none" x="470.4375" y="145" width="16" height="16"/><path fill="none" stroke="white" paint-order="fill stroke markers" d=" M 470.4375 145 L 486.4375 145 L 486.4375 161 L 470.4375 161 L 470.4375 145 Z" stroke-linejoin="bevel" stroke-miterlimit="10"/></g></g></g><g><g fill="black"><path fill="" stroke="none" d=""/><g transform="translate(5,26)"><path fill="none" stroke="none"/><text fill="" stroke="none" font-family="helvetica" font-size="12pt" font-style="normal" font-weight="bold" text-decoration="normal" x="0" y="0" text-anchor="start" dominant-baseline="text-after-edge">Triplet cell type proportions</text></g></g></g><g/><g/></g></g></svg>